<svg width="580" height="400" xmlns="http://www.w3.org/2000/svg">
 <!-- Created with Method Draw - http://github.com/duopixel/Method-Draw/ -->
 <g>
  <title>background</title>
  <rect fill="#ffffff" id="canvas_background" height="402" width="582" y="-1" x="-1"/>
  <g display="none" overflow="visible" y="0" x="0" height="100%" width="100%" id="canvasGrid">
   <rect fill="url(#gridpattern)" stroke-width="0" y="0" x="0" height="100%" width="100%"/>
  </g>
 </g>
 <g>
  <title>Layer 1</title>
  <path id="svg_6" d="m92.922626,207.998985" opacity="0.5" stroke-width="1.5" stroke="#000" fill="#fff"/>
  <path opacity="0.69" id="svg_36" d="m41.374069,311.510239c14.561799,-1.123422 45.565801,4.94343 111.944476,11.704091c33.189337,3.380331 108.441964,7.403831 144.494501,8.561214c36.052537,1.157382 115.811717,-19.673249 142.777515,-16.327782c13.482899,1.672734 47.226809,3.548466 76.987593,10.808598c29.760785,7.260133 56.733641,21.099863 57.471232,21.999849c1.475183,1.799972 4.780246,44.667948 1.217661,49.340221c-1.781293,2.336137 -174.098873,1.212804 -284.857049,-0.136751c-110.758176,-1.349556 -284.756958,0.274665 -286.700651,-1.494091c-3.887388,-3.537511 -3.030332,-63.225915 3.329639,-72.471573c6.359972,-9.245658 26.054184,-11.422064 33.335083,-11.983776z" stroke-width="1.5" stroke="#3c948b" fill="#3c948b"/>
  <path stroke="#3c948b" opacity="0.29" id="svg_37" d="m205.64025,301.93878c-1.13109,0.37023 13.78156,14.58279 18.79876,17.22617c5.0172,2.64338 29.75331,4.44497 46.07199,7.67729c16.31868,3.23232 40.52026,0.60856 46.9391,-1.45303c6.41884,-2.06159 17.60194,-2.15314 22.55688,-8.67334c4.95493,-6.52019 7.88541,-12.33397 7.88541,-14.37153c0,-2.03756 -13.05503,7.33521 -76.80656,6.69991c-63.75152,-0.63529 -64.31448,-7.47569 -65.44558,-7.10547z" fill-opacity="null" stroke-opacity="null" stroke-width="1.5" fill="#3c948b"/>
  <path opacity="0.68" id="svg_40" d="m227.91947,126.39633c-2.03046,0 -16.3706,24.61936 -24.23865,40.79961c-7.86805,16.18026 -20.83451,67.01878 -22.86498,84.78533c-2.03047,17.76655 3.00991,31.88056 5.04037,32.89579c2.03046,1.01523 12.17064,-3.24429 33.49051,-2.22906c21.31986,1.01523 30.90784,6.18536 32.43069,2.12443c1.52284,-4.06093 -11.67517,-34.01025 -18.27418,-65.48243c-6.59901,-31.47218 -1.52283,-92.89367 -5.58376,-92.89367z" fill-opacity="null" stroke-opacity="null" stroke-width="1.5" stroke="#3c948b" fill="#3c948b"/>
  <path opacity="0.51" id="svg_41" d="m255.14279,77.77807c1.41054,3.0268 0.29968,17.5981 2.33125,34.42559c2.03157,16.82749 19.19488,57.60354 48.63716,95.9188c29.44228,38.31526 24.85426,35.15669 43.89902,46.19303c19.04477,11.03634 30.21343,5.92181 30.21343,10.64103c0,4.71921 -4.79426,1.97431 -9.56964,6.8998c-4.77536,4.92548 -6.59901,5.54652 -12.18278,5.54652c-5.58377,0 -11.35603,-0.58268 -37.24443,0.92127c-25.8884,1.50394 -35.40133,16.26261 -42.50795,13.72453c-7.10662,-2.53808 -18.81959,-6.76859 -35.06329,-78.85003c-16.2437,-72.08144 10.07669,-138.44733 11.48723,-135.42054z" fill-opacity="null" stroke-opacity="null" stroke-width="1.5" stroke="#3c948b" fill="#3c948b"/>
  <path opacity="0.39" id="svg_42" d="m191.90314,290.437849c0,2.10552 33.08674,11.62502 43.61435,13.53549c10.52761,1.91047 26.40742,2.11463 27.009,0.00911c0.60158,-2.10552 -0.84039,-0.3099 -1.74275,-2.71621c-0.90237,-2.4063 -0.84949,-3.62768 -2.7071,-6.01577c-1.85761,-2.38809 -23.46151,-7.8205 -31.88359,-9.32444c-8.42209,-1.50395 -34.28991,2.4063 -34.28991,4.51182z" fill-opacity="null" stroke-opacity="null" stroke-width="1.5" stroke="#3c948b" fill="#3c948b"/>
  <path opacity="0.53" id="svg_43" d="m280.83974,299.46688c1.43286,-2.3881 16.23904,-13.37332 36.29902,-17.19427c20.05998,-3.82095 44.89616,-0.00001 45.61258,-0.23882c0.71642,-0.23881 -1.19405,3.10454 -3.82096,7.16429c-2.6269,4.05975 -4.40445,6.12963 -5.67792,7.13781c-1.27347,1.00817 -5.3073,-0.45115 -23.45681,3.84742c-18.1495,4.29857 -40.83639,3.10452 -43.22448,3.10452c-2.38809,0 -7.16428,-1.43286 -5.73143,-3.82095z" fill-opacity="null" stroke-opacity="null" stroke-width="1.5" stroke="#3c948b" fill="#3c948b"/>
  <path opacity="0.54" id="svg_44" d="m344.072076,318.604906c1.061136,1.5917 3.311441,-1.591696 23.875474,-1.591696c20.564033,0 66.510712,-13.512907 136.677212,3.021042c70.1665,16.533949 69.344921,27.467927 73.069763,25.436722c3.724842,-2.031205 -1.824967,-35.320185 -2.090254,-43.411318c-0.530574,-16.182265 4.984925,-68.36372 -1.202359,-75.522385c-6.187284,-7.158665 -184.96644,38.745746 -194.251341,44.316696c-9.284901,5.57095 -13.794722,12.203012 -17.773966,22.018489c-3.979244,9.815477 -19.365665,24.14075 -18.304529,25.73245z" fill-opacity="null" stroke-opacity="null" stroke-width="1.5" stroke="#3c948b" fill="#3c948b"/>
  <path opacity="0.45" id="svg_45" d="m388.37434,260.773208c-3.713962,0 -6.101509,-0.795849 -8.75434,-1.856981c-2.65283,-1.061132 -26.263019,-3.448679 -38.996604,-14.06c-12.733585,-10.611321 -52.791321,-68.177736 -57.035849,-75.870944c-4.244528,-7.693208 35.076778,-9.866937 46.749231,-7.744673c11.672453,2.122264 43.776922,2.924389 55.930776,2.26746c12.153855,-0.65693 187.933723,5.780784 189.914768,7.389637c1.981045,1.608853 1.009666,13.134863 1.805515,25.603165c0.795849,12.468302 1.557387,17.58923 -5.211931,22.167663c-6.769318,4.578433 -180.687604,42.104673 -184.401566,42.104673z" fill-opacity="null" stroke-opacity="null" stroke-width="1.5" stroke="#3c948b" fill="#3c948b"/>
  <path opacity="0.41" id="svg_46" d="m19.027203,189.987041c-13.856034,3.362126 -1.054743,31.487846 -1.054743,42.125592c0,10.637747 -18.380224,84.916735 4.643247,78.139545c23.023471,-6.777189 133.404569,8.525624 149.006597,8.880215c15.602028,0.354592 44.323943,3.545916 44.323943,1.772958c0,-1.772958 -9.573971,-10.637746 -24.466816,-23.04845c-14.892845,-12.410705 -17.729577,-30.849466 -13.474478,-54.252508c4.255098,-23.403041 15.956618,-65.954028 19.147942,-68.79076c3.191324,-2.836732 -164.269658,11.811281 -178.125692,15.173408z" fill-opacity="null" stroke-opacity="null" stroke-width="1.5" stroke="#3c948b" fill="#3c948b"/>
  <path opacity="0.49" id="svg_47" d="m7.96268,110.363339c-5.191975,2.478879 -4.759859,14.747772 -5.171407,27.185545c-0.411547,12.437773 -2.700128,34.690033 4.966612,44.19882c7.66674,9.508787 188.685827,-11.898353 190.458785,-15.089677c1.772958,-3.191324 14.183662,-25.530591 20.920901,-37.232112c6.73724,-11.701521 15.95662,-18.084169 15.602029,-20.920901c-0.354592,-2.836733 -30.849465,-0.709183 -37.586705,-0.709183c-6.737239,0 -178.806266,-2.390248 -189.190215,2.567508z" fill-opacity="null" stroke-opacity="null" stroke-width="1.5" stroke="#3c948b" fill="#3c948b"/>
  <path opacity="0.43" id="svg_48" d="m4.951863,5.344654c-3.88565,4.085813 -3.482018,89.659174 0.838966,95.293534c4.320984,5.63436 80.067301,2.823636 95.66933,2.469044c15.602028,-0.354591 130.03518,2.206457 136.299962,-0.617289c6.264781,-2.823746 7.262633,-12.069098 11.16314,-23.061436c3.900507,-10.992338 40.74024,-61.710265 49.382291,-72.20417c4.321025,-5.246953 -65.645984,-5.538327 -140.378956,-5.607236c-74.732973,-0.068909 -151.031908,1.684647 -152.974733,3.727553z" fill-opacity="null" stroke-opacity="null" stroke-width="1.5" stroke="#3c948b" fill="#3c948b"/>
  <path opacity="0.64" id="svg_49" d="m309.941728,5.052053c-6.737239,3.545915 -47.543988,66.57544 -49.316945,74.376454c-1.772958,7.801014 -1.418366,27.658141 2.127549,27.658141c1.772957,0 36.966168,-2.216197 52.967113,-2.304845c16.000944,-0.088648 8.377223,3.36862 40.290464,3.014028c31.91324,-0.354592 87.015525,-0.684303 116.737279,-3.783731c29.721753,-3.099428 104.880001,-0.653509 104.880001,-10.936664c0,-10.283153 2.246807,-79.45202 -1.083543,-86.47632c-3.33035,-7.024299 -190.067907,-2.954669 -204.60616,-4.018444c-14.538253,-1.063774 -55.258519,-1.074535 -61.995758,2.471381z" fill-opacity="null" stroke-opacity="null" stroke-width="1.5" stroke="#3c948b" fill="#3c948b"/>
  <path opacity="0.71" id="svg_50" d="m261.688556,111.341746c-2.482141,3.634564 15.247437,46.170366 20.838761,48.570366c5.591324,2.4 17.457127,-4.246422 34.832113,-2.828056c17.374986,1.418366 256.715366,10.775912 258.341375,8.951044c1.626008,-1.824868 4.095367,-54.332371 -0.856134,-60.133614c-4.951501,-5.801243 -69.922969,0.541865 -83.139091,2.166081c-13.216123,1.624215 -138.972465,2.949934 -154.840436,2.949934c-15.867972,0 -19.753904,-3.288755 -31.942988,-2.823354c-12.189085,0.465402 -40.751458,-0.486964 -43.2336,3.147599z" fill-opacity="null" stroke-opacity="null" stroke-width="1.5" stroke="#3c948b" fill="#3c948b"/>
 </g>
</svg>